<svg width="64" height="64" viewBox="0 0 64 64" fill="none" xmlns="http://www.w3.org/2000/svg">
<g clip-path="url(#clip0_229:6199)">
<path d="M56.7236 8.30363C56.501 7.835 55.9405 7.63562 55.472 7.85838C55.0035 8.081 54.8041 8.64125 55.0266 9.11C55.7453 10.6224 56.1097 12.2558 56.1097 13.9649C56.1097 22.2364 53.2857 25.4416 51.0163 28.0173C50.1041 29.0526 49.2955 29.9706 48.8158 31.0609H15.1843C14.7046 29.9706 13.8961 29.0527 12.9838 28.0173C10.7146 25.4417 7.89059 22.2365 7.89059 13.9649C7.89059 6.96175 13.8163 1.87875 21.9806 1.87875C25.1676 1.87875 28.4227 3.405 30.8203 5.99325C30.7737 6.06012 30.7266 6.12762 30.6806 6.19375C29.0788 8.49763 28.0206 10.0196 23.9845 10.0196C23.4657 10.0196 23.0451 10.4402 23.0451 10.959C23.0451 11.4777 23.4657 11.8984 23.9845 11.8984C29.0025 11.8984 30.495 9.75175 32.2231 7.26638C32.3631 7.065 32.5072 6.85875 32.655 6.65013C32.69 6.61912 32.7235 6.58625 32.7538 6.54987C35.2223 3.58137 38.5995 1.87875 42.0198 1.87875C46.1469 1.87875 49.8462 3.20162 52.4365 5.60337C52.817 5.95625 53.4111 5.93362 53.764 5.55325C54.1167 5.17287 54.0942 4.5785 53.7138 4.22575C50.7751 1.50062 46.6221 0 42.0198 0C38.3678 0 34.7803 1.64112 32.0302 4.53737C29.2961 1.67925 25.6103 0 21.9806 0C17.4846 0 13.3985 1.43975 10.475 4.05425C7.59684 6.628 6.01184 10.1476 6.01184 13.9648C6.01184 22.9458 9.22672 26.5948 11.5742 29.259C12.559 30.3766 13.3368 31.2595 13.6265 32.2609C13.7427 32.6626 14.1106 32.9394 14.5288 32.9394H25.049V41.2029L22.6681 42.3934C21.2165 43.1191 20.6261 44.8906 21.3518 46.3423C21.8538 47.3461 22.8631 47.9696 23.9858 47.9696C24.3476 47.9696 24.71 47.8999 25.049 47.7685V51.2217L22.6681 52.4123C21.2165 53.138 20.6261 54.9095 21.3518 56.3611C21.8538 57.365 22.8631 57.9885 23.9858 57.9885C24.3476 57.9885 24.71 57.9188 25.049 57.7874V59.053C25.049 59.3671 25.2058 59.6604 25.4673 59.8345L31.4791 63.8424C31.6368 63.9476 31.8185 64.0001 32.0001 64.0001C32.1817 64.0001 32.3633 63.9475 32.5211 63.8424L38.5328 59.8345C38.7941 59.6602 38.9512 59.3671 38.9512 59.053V50.852L41.3321 49.6615C42.7837 48.9357 43.3741 47.1642 42.6483 45.7127C41.964 44.3442 40.3502 43.7416 38.9512 44.2856V40.8332L41.3321 39.6427C42.7837 38.917 43.3741 37.1455 42.6483 35.694C41.964 34.3255 40.3502 33.7229 38.9512 34.2669V32.9394H49.4715C49.8897 32.9394 50.2576 32.6629 50.3738 32.2609C50.6636 31.2595 51.4413 30.3768 52.4261 29.259C54.7735 26.5948 57.9883 22.9458 57.9883 13.9648C57.9885 11.9745 57.563 10.0697 56.7236 8.30363ZM26.9278 32.9394H37.0727V35.1911L26.9278 40.2635V32.9394ZM37.0726 58.5501L32.0002 61.9318L26.9278 58.5501V56.8636L37.0727 51.7912V58.5501H37.0726ZM39.5397 46.0769C39.6921 46.0006 39.8542 45.9645 40.014 45.9645C40.4047 45.9645 40.7817 46.1803 40.9681 46.5529C41.2305 47.0779 41.017 47.7186 40.492 47.9811L24.4607 55.9967C23.94 56.257 23.2922 56.0402 23.0323 55.5207C22.7698 54.9957 22.9835 54.355 23.5085 54.0925L39.5397 46.0769ZM26.9278 50.2824V46.8449L37.0727 41.7725V45.21L26.9278 50.2824ZM39.5397 36.058C39.6921 35.9818 39.8542 35.9456 40.014 35.9456C40.4047 35.9456 40.7817 36.1614 40.9681 36.534C41.2305 37.059 41.017 37.6997 40.492 37.9622L24.4607 45.9779C23.94 46.2381 23.2922 46.0214 23.0323 45.5019C22.7698 44.9769 22.9835 44.3361 23.5085 44.0736L39.5397 36.058Z" fill="#E35191"/>
</g>
<defs>
<clipPath id="clip0_229:6199">
<rect width="64" height="64" fill="white"/>
</clipPath>
</defs>
</svg>
