<svg width="64" height="64" viewBox="0 0 64 64" fill="none" xmlns="http://www.w3.org/2000/svg">
<g clip-path="url(#clip0_219:184)">
<path d="M63.4312 38.6514C62.2973 38.1654 61.1118 37.4926 59.8068 36.5939C59.3791 36.2997 58.7944 36.4078 58.5004 36.8349C58.2061 37.2623 58.3141 37.8472 58.7413 38.1413C59.3363 38.5509 59.9104 38.9182 60.4694 39.2459C55.6436 40.8536 52.8638 43.7378 50.1639 46.5393C46.1656 50.6881 42.3892 54.6069 32.0003 54.6069C21.6114 54.6069 17.8349 50.6883 13.8367 46.5393C12.1723 44.8123 10.4768 43.0542 8.29119 41.5828C12.6859 42.4171 15.9969 43.3624 18.8419 44.1753C23.3211 45.4551 26.8589 46.4659 32.0003 46.4659C37.2494 46.4659 40.9834 45.3673 45.3068 44.0949C46.8912 43.6288 48.5296 43.1466 50.4023 42.6638C50.9048 42.5343 51.2071 42.0221 51.0776 41.5197C50.9482 41.0174 50.4367 40.7153 49.9334 40.8446C48.0299 41.3354 46.3761 41.8221 44.7766 42.2928C40.4201 43.5747 36.9789 44.5873 32.0004 44.5873C27.1222 44.5873 23.6959 43.6084 19.3583 42.3691C16.5229 41.5589 13.2338 40.6192 8.88731 39.7829C16.1108 39.2013 26.5023 38.4502 32.0007 38.4502C35.5914 38.4502 41.4534 38.7618 49.4233 39.3766C49.9423 39.4156 50.3922 39.0296 50.4322 38.5122C50.4721 37.9949 50.0852 37.5433 49.5679 37.5034C41.5498 36.8851 35.6394 36.5716 32.0006 36.5716C25.4427 36.5716 12.0526 37.6242 5.16156 38.2052C6.51369 37.2811 7.80844 36.2557 9.07919 35.2468C12.8453 32.2568 16.4026 29.4327 20.9789 29.4327C25.9142 29.4327 31.0074 32.9324 31.0617 34.5368C31.0788 35.0429 31.4942 35.4444 32.0006 35.4444C32.5071 35.4444 32.9222 35.0429 32.9394 34.5368C32.9549 34.0773 33.4291 33.3969 34.2078 32.7172C34.5986 32.3761 34.6388 31.7826 34.2976 31.3917C33.9566 31.0009 33.3631 30.9607 32.9722 31.3019C32.5908 31.6349 32.2639 31.9716 31.9939 32.3078C29.9874 29.8141 25.1478 27.5538 20.9789 27.5538C15.7474 27.5538 11.7637 30.7167 7.91119 33.7753C5.58356 35.6232 3.17694 37.5339 0.569686 38.6513C0.200311 38.8097 -0.0341894 39.2028 0.00468559 39.6032C0.0438106 40.0054 0.346811 40.3487 0.743061 40.4332C6.54069 41.6757 9.42769 44.6712 12.4842 47.8428C16.5789 52.0918 20.8132 56.4854 32.0006 56.4854C43.1879 56.4854 47.4222 52.0918 51.5169 47.8428C54.5734 44.6712 57.4604 41.6754 63.2582 40.4331C63.6477 40.3497 63.9484 40.0183 63.9944 39.6228C64.0413 39.2149 63.8089 38.8133 63.4312 38.6514Z" fill="#E35191"/>
<path d="M56.0473 16.5323C52.6978 16.5323 49.9729 12.9083 49.9729 8.4539C49.9729 7.93515 49.5524 7.51453 49.0336 7.51453C48.5147 7.51453 48.0942 7.93515 48.0942 8.4539C48.0942 12.9083 45.3692 16.5323 42.0198 16.5323C41.5009 16.5323 41.0804 16.9529 41.0804 17.4716C41.0804 17.9904 41.5009 18.411 42.0198 18.411C45.3693 18.411 48.0942 22.035 48.0942 26.4894C48.0942 27.0081 48.5147 27.4288 49.0336 27.4288C49.5524 27.4288 49.9729 27.0081 49.9729 26.4894C49.9729 22.035 52.6979 18.411 56.0473 18.411C56.5662 18.411 56.9867 17.9904 56.9867 17.4716C56.9867 16.9529 56.5662 16.5323 56.0473 16.5323ZM49.0336 21.7979C48.2249 19.9109 46.9441 18.3855 45.3909 17.4715C46.9441 16.5577 48.2249 15.0322 49.0336 13.1452C49.8422 15.0322 51.1231 16.5577 52.6762 17.4715C51.1231 18.3855 49.8422 19.911 49.0336 21.7979Z" fill="#E35191"/>
<path d="M44.0237 27.5537C41.8172 27.5537 39.9532 24.7719 39.9532 21.4793C39.9532 20.9606 39.5327 20.5399 39.0138 20.5399C38.495 20.5399 38.0744 20.9606 38.0744 21.4793C38.0744 24.7721 36.2104 27.5537 34.0039 27.5537C33.4851 27.5537 33.0646 27.9743 33.0646 28.4931C33.0646 29.0118 33.4851 29.4324 34.0039 29.4324C36.2104 29.4324 38.0744 32.2142 38.0744 35.5068C38.0744 36.0256 38.495 36.4462 39.0138 36.4462C39.5327 36.4462 39.9532 36.0256 39.9532 35.5068C39.9532 32.2141 41.8172 29.4324 44.0237 29.4324C44.5426 29.4324 44.9631 29.0118 44.9631 28.4931C44.9631 27.9743 44.5426 27.5537 44.0237 27.5537ZM39.7167 30.0014C39.4522 30.3718 39.2173 30.7717 39.0138 31.1956C38.8103 30.7717 38.5754 30.3718 38.3109 30.0014C37.8732 29.3886 37.3748 28.8827 36.8325 28.4931C37.3751 28.1034 37.8732 27.5976 38.3109 26.9847C38.5754 26.6143 38.8103 26.2144 39.0138 25.7906C39.2173 26.2144 39.4522 26.6143 39.7167 26.9847C40.1545 27.5976 40.6528 28.1034 41.1952 28.4931C40.6527 28.8827 40.1545 29.3886 39.7167 30.0014Z" fill="#E35191"/>
<path d="M59.0529 33.5656C56.8464 33.5656 54.9824 30.7838 54.9824 27.4912C54.9824 26.9724 54.5619 26.5518 54.043 26.5518C53.5241 26.5518 53.1036 26.9724 53.1036 27.4912C53.1036 30.7839 51.2396 33.5656 49.0331 33.5656C48.5143 33.5656 48.0938 33.9862 48.0938 34.505C48.0938 35.0237 48.5143 35.4443 49.0331 35.4443C51.2396 35.4443 53.1036 38.2261 53.1036 41.5187C53.1036 42.0375 53.5241 42.4581 54.043 42.4581C54.5619 42.4581 54.9824 42.0375 54.9824 41.5187C54.9824 38.226 56.8464 35.4443 59.0529 35.4443C59.5718 35.4443 59.9923 35.0237 59.9923 34.505C59.9923 33.9862 59.5718 33.5656 59.0529 33.5656ZM54.7459 36.0132C54.4814 36.3836 54.2465 36.7835 54.043 37.2073C53.8395 36.7835 53.6046 36.3836 53.3401 36.0132C52.9024 35.4003 52.404 34.8945 51.8616 34.5048C52.4041 34.1152 52.9024 33.6093 53.3401 32.9964C53.6046 32.6261 53.8395 32.2262 54.043 31.8023C54.2465 32.2262 54.4814 32.6261 54.7459 32.9964C55.1836 33.6093 55.682 34.1152 56.2244 34.5048C55.682 34.8946 55.1836 35.4005 54.7459 36.0132Z" fill="#E35191"/>
</g>
<defs>
<clipPath id="clip0_219:184">
<rect width="64" height="64" fill="white"/>
</clipPath>
</defs>
</svg>
